<svg viewBox="0 0 355 156" xmlns="http://www.w3.org/2000/svg" width="355" height="156">
    <style type="text/css">

        .st0 {
            fill: #DB4437;
        }

        .st1 {
            fill: #FFF;
        }

        .st2 {
            fill: #4267B2;
        }

        .st3 {
            fill: #0077B5;
        }

        .st4 {
            fill: #FF0000;
        }

        .st5 {
            fill: none;
        }

        .st6 {
            fill: #1DA1F2;
        }

        .st7 {
            fill: #96151D;
        }

        .st8 {
            fill: #E37222;
        }

        .st9 {
            fill: none;
            stroke: #FFFFFF;
            stroke-width: 2.3333333;
            stroke-miterlimit: 10;
        }

        .st10 {
            fill: none;
            stroke: #FFF;
            stroke-width: 1.75;
            stroke-miterlimit: 10;
        }

        .st11 {
            fill: #666;
        }

        .st12 {
            fill: none;
            stroke: #B3B3B3;
            stroke-width: 0.8248333;
            stroke-linecap: round;
            stroke-linejoin: round;
            stroke-miterlimit: 10;
        }

        .st13 {
            fill: none;
            stroke: #B3B3B3;
            stroke-width: 0.5833333;
            stroke-linecap: round;
            stroke-linejoin: round;
            stroke-miterlimit: 10;
        }

        .st14 {
            fill: #6D943E;
        }

        .st15 {
            fill: none;
            stroke: #6D943E;
            stroke-width: 0.8248333;
            stroke-linecap: round;
            stroke-miterlimit: 10;
        }

        .st16 {
            fill: none;
            stroke: #FFF;
            stroke-width: 0.5833333;
            stroke-linecap: round;
            stroke-linejoin: round;
            stroke-miterlimit: 10;
        }

        .st17 {
            fill: none;
            stroke: #FFFFFF;
            stroke-width: 0.5833333;
            stroke-linecap: round;
            stroke-miterlimit: 10;
        }

        .st18 {
            fill: #010101;
        }

        .st19 {
            fill: none;
            stroke: #FFF;
            stroke-width: 1.6;
            stroke-miterlimit: 10;
        }

        .st20 {
            fill: none;
            stroke: #FFF;
            stroke-width: 2.8284271;
            stroke-miterlimit: 10;
        }

        .st21 {
            fill: none;
            stroke: #999;
            stroke-width: 1.6;
            stroke-miterlimit: 10;
        }

        .st22 {
            fill: none;
            stroke: #999;
            stroke-width: 2.8284271;
            stroke-miterlimit: 10;
        }

        .st23 {
            fill: none;
            stroke: #666;
            stroke-width: 1.6;
            stroke-miterlimit: 10;
        }

        .st24 {
            fill: none;
            stroke: #666;
            stroke-width: 2.8284271;
            stroke-miterlimit: 10;
        }

        .st25 {
            fill: #999;
        }

        .st26 {
            fill: none;
            stroke: #FFF;
            stroke-width: 1.6666666;
            stroke-linecap: round;
            stroke-miterlimit: 10;
        }

        .st27 {
            fill: #808080;
        }

        .st28 {
            fill: none;
            stroke: #E5E5E5;
            stroke-width: 2.4041631;
            stroke-miterlimit: 10;
        }

        .st29 {
            fill: #8D4900;
        }

        .st30 {
            fill: none;
            stroke: #FFF;
            stroke-width: 2;
            stroke-miterlimit: 10;
        }

        .st31 {
            fill: #2DAAC2;
        }

        .st32 {
            fill: #CCC;
        }

        .st33 {
            fill: #555;
        }

        .st34 {
            fill: #333;
        }

        .st35 {
            fill: #E6E6FA;
        }

        .st36 {
            fill: #191970;
        }
        .st37{
            filter:url(#Adobe_OpacityMaskFilter);
        }
        .st38{
            fill:#FFFFFF;
        }
        .st39{
            mask:url(#mask-2);
        }
        .st40{
            fill:#666666;
        }
        .link-secondary-static {
            fill: none;
            stroke: #666;
            stroke-width: 1;
            stroke-miterlimit: 10;
        }

        .link-secondary-active {
            fill: none;
            stroke: #000;
            stroke-width: 1;
            stroke-miterlimit: 10;
        }

        .link-secondary-hover {
            fill: none;
            stroke: #1A1A1A;
            stroke-width: 1;
            stroke-miterlimit : 10;
        }
        .facebook0 {
            fill: #1877F2;
        }
        .facebook1 {
            fill: #FFF;
        }
        .linkedin0 {
			fill: #2867B2;
		}
		.linkedin1 {
			fill: #FFF;
		}
        .youtube0 {
        fill: #F00;
        }
        .youtube1 {
        fill: #FFF;
        }
        .twitter0 {
        fill: #1DA1F2;
        }
        .twitter1 {
        fill: #FFF;
        }
        .vanguard0 {
			fill: #96151D;
		}
		.vanguard1 {
			fill: #FFF;
		}
        .blog0 {
			fill: #E67425;
		}
		.blog1 {
			fill: none;
			stroke: #FFF;
			stroke-width: 2;
			stroke-miterlimit: 10;
		}
        .rss0 {
			fill: #E67425;
		}
		.rss1 {
			fill: none;
			stroke: #FFF;
			stroke-width: 2;
			stroke-miterlimit: 10;
		}
		.rss2 {
			fill: #FFF;
		}
        .phone0 {
			fill: #666;
		}
		.phone1 {
			fill: #FFF;
		}
        .subscribe0 {
			fill: none;
		}
		.subscribe1 {
			fill: none;
			stroke: #B3B3B3;
			stroke-width: 1.414;
			stroke-linecap: round;
			stroke-linejoin: round;
			stroke-miterlimit: 10;
		}

		.subscribe2 {
			fill: none;
			stroke: #B3B3B3;
			stroke-linecap: round;
			stroke-linejoin: round;
			stroke-miterlimit: 10;
		}
		.subscribe3 {
			fill: #6D943E;
		}
		.subscribe4 {
			fill: none;
			stroke: #6D943E;
			stroke-width: 1.414;
			stroke-linecap: round;
			stroke-miterlimit: 10;
		}
		.subscribe5 {
			fill: none;
			stroke: #FFF;
			stroke-linecap: round;
			stroke-linejoin: round;
			stroke-miterlimit: 10;
		}
		.subscribe6 {
			fill: none;
			stroke: #FFF;
			stroke-linecap: round;
			stroke-miterlimit: 10;
		}
        .vanguard0 {
        fill: #96151D;
        }
        .home0 {
			fill: #C20029;
			stroke: none;
			stroke-linecap: round;
			stroke-linejoin: round;
		}
        .c11n-caret-down-small,
        .c11n-caret-up-small{
            fill: #040505;
        }
        .c11n-caret-down-medium,
        .c11n-search-medium,
        .c11n-remove-medium,
        .c11n-caret-up-medium{
            fill: none;
            stroke: #040505;
            stroke-linecap: round;
            stroke-linejoin: round;
        }


    </style>
    <view id="facebook-view" viewBox="25 2 21 21"></view>
    <view id="linkedin-view" viewBox="48 2 21 21"></view>
    <view id="youtube-view" viewBox="71 2 21 21"></view>
    <view id="twitter-view" viewBox="94 2 21 21"></view>
    <view id="mobile-apps-view" viewBox="117 2 21 21"></view>
    <view id="blog-view" viewBox="140 2 21 21"></view>
    <view id="rss-view" viewBox="163 2 21 21"></view>
    <view id="phone-view" viewBox="186 2 21 21"></view>
    <view id="subscribe-view" viewBox="209 2 21 21"></view>
    <view id="no-ship-signature-view" viewBox="2 25 157 44"></view>
    <view id="white-signature-view" viewBox="161 25 91 20"></view>
    <view id="link-offsite-default" viewBox="150 97 10 10"></view>
    <view id="link-offsite-active" viewBox="165 97 10 10"></view>
    <view id="link-offsite-hover" viewBox="180 97 10 10"></view>
    <view id="right-caret-view" viewBox="298 57 13 22"></view>
    <view id="site-preference-view" viewBox="313 57 12 12"></view>
    <view id="ad-choices-view" viewBox="336 25 18 72"></view>
    <view id="cart-view" viewBox="265 68 15 15"></view>
    <view id="back-view" viewBox="150 71 47 22"></view>
    <view id="paper-view" viewBox="199 71 25 30"></view>
    <view id="co-brand-view" viewBox="2 71 146 42"></view>
    <view id="vanguard-logo" viewBox="2 120 120 246"></view>
    <view id="vanguard-logo" viewBox="2 120 120 246"></view>

    <g id="facebook" transform="translate(10 0)">
        <path class="facebook0" d="M24 12c0-6.62742-5.37258-12-12-12S0 5.37258 0 12c0 5.98955 4.38823 10.954 10.125 11.8542V15.4688H7.07813V12H10.125V9.35625c0-3.0075 1.79153-4.66875 4.53256-4.66875 1.31293 0 2.68619 0.234375 2.68619 0.234375V7.875h-1.51319C14.3399 7.875 13.875 8.8 13.875 9.749V12h3.32813l-0.532032 3.46875H13.875v8.38542C19.6118 22.954 24 17.9895 24 12Z"/>
        <path class="facebook1" d="M16.6711 15.4688L17.2031 12H13.875V9.749C13.875 8.8 14.3399 7.875 15.8306 7.875H17.3438V4.92188c0 0-1.37326-0.234375-2.68619-0.234375C11.9165 4.6875 10.125 6.34875 10.125 9.35625V12H7.07813v3.46875H10.125v8.38542C10.736 23.95 11.3621 24 12 24s1.26405-0.0499668 1.875-0.145834V15.4688H16.6711Z"/>
    </g>
    <g id="linkedin" transform="translate(36 0)">
        <circle class="linkedin0" cx="12" cy="12" r="12"/>
        <rect class="linkedin1" x="6.03142" y="9.87721" width="2.51692" height="8.09781"/>
        <path class="linkedin1" d="M7.29045 5.85179c0.8046 0 1.45845 0.65391 1.45845 1.45875 0 0.805637-0.653851 1.45966-1.45845 1.45966 -0.806674 0-1.45961-0.654028-1.45961-1.45966C5.83085 6.5057 6.48378 5.85179 7.29045 5.85179"/>
        <path class="linkedin1" d="M10.1268 9.87721h2.41427v1.10639h0.0334892c0.335787-0.636647 1.15684-1.30794 2.38124-1.30794 2.54856 0 3.0191 1.67721 3.0191 3.85747v4.44188h-2.51508v-3.93797c0-0.939475-0.0172634-2.14736-1.30782-2.14736 -1.30967 0-1.51024 1.02308-1.51024 2.07934v4.00598H10.1268V9.87721Z"/>
    </g>
    <g id="youtube" transform="translate(62 0)">
        <circle class="youtube0" cx="12" cy="12" r="12"/>
        <path class="youtube1" d="M19.6312 8.14133c-0.183178-0.689749-0.722898-1.23297-1.4082-1.41734 -1.24215-0.334991-6.22297-0.334991-6.22297-0.334991s-4.98082 0-6.22297 0.334991c-0.685299 0.184368-1.22502 0.727593-1.4082 1.41734 -0.332836 1.25021-0.332836 3.85866-0.332836 3.85866s0 2.60846 0.332836 3.85867c0.183179 0.689749 0.722898 1.23297 1.4082 1.41734 1.24214 0.334997 6.22297 0.334997 6.22297 0.334997s4.98082 0 6.22297-0.334997c0.685299-0.184368 1.22502-0.727587 1.4082-1.41734 0.33283-1.25021 0.33283-3.85867 0.33283-3.85867S19.964 9.39154 19.6312 8.14133Z"/>
        <polygon class="youtube0" points="10.371 14.3683 14.534 12.0001 10.371 9.63172"/>
    </g>
    <g id="twitter" transform="translate(88 0)">
        <circle class="twitter0" cx="12" cy="12" r="12"/>
        <path class="twitter1" d="M9.80435 18.3296c5.32097 0 8.23078-4.40825 8.23078-8.23076 0-0.125268-0.0025444-0.24996-0.0082684-0.373985 0.564787-0.408306 1.0558-0.917778 1.44314-1.49782 -0.518358 0.230238-1.07615 0.38544-1.66129 0.455395 0.597221-0.358074 1.0558-0.924768 1.27205-1.60023 -0.559067 0.331362-1.17792 0.572394-1.83684 0.702174 -0.527899-0.562266-1.27968-0.913974-2.11159-0.913974 -1.59769 0-2.89328 1.29557-2.89328 2.89262 0 0.227052 0.0254459 0.447786 0.0750542 0.659586 -2.40417-0.120846-4.53612-1.27205-5.96272-3.02239C6.1027 7.82761 5.95959 8.32435 5.95959 8.85416c0 1.00364 0.510726 1.88963 1.28731 2.40795 -0.474474-0.0145979-0.920322-0.14499-1.31021-0.361877C5.93606 10.9123 5.93606 10.9244 5.93606 10.9371c0 1.40116 0.99729 2.5708 2.32085 2.83606 -0.242958 0.0661077-0.498642 0.101747-0.762587 0.101747 -0.186354 0-0.367626-0.0184441-0.543804-0.0521755 0.368256 1.1493 1.43614 1.98567 2.70246 2.00923 -0.990282 0.775932-2.23753 1.23832-3.59289 1.23832 -0.233424 0-0.463662-0.0133553-0.690084-0.040062C6.65031 17.8507 8.17041 18.3296 9.80435 18.3296"/>
    </g>
    <g id="mobile-apps" transform="translate(114 0)">
        <circle class="vanguard0" cx="12" cy="12" r="12"/>
        <path class="vanguard1" d="M14.7235 6.00001v0.103348c1.22267 0.477029 0.765494 1.67851 0.765494 1.67851l-2.23733 7.14799 -3.02509-8.90932H6v0.126589c0.725471 0.165964 1.0776 1.42771 1.0776 1.42771L9.85324 15.3035c0.766872 2.17535 2.20437 2.60494 2.20437 2.60494l1.77443 0.689447L18.1 6h-3.3765"/>
    </g>
    <g id="blog" transform="translate(140 0)">
        <circle class="blog0" cx="12" cy="12" r="12"/>
        <circle class="blog1" cx="9" cy="15" r="3"/>
        <line class="blog1" x1="6" y1="7" x2="6" y2="15"/>
        <path class="blog1" d="M16 15c0-3.86599-3.13401-7-7-7"/>
        <path class="blog1" d="M9 4c6.07513 0 11 4.92487 11 11"/>
    </g>
    <g id="rss" transform="translate(166 0)">
        <circle class="rss0" cx="12" cy="12" r="12"/>
        <path class="rss1" d="M14 18c0-4.41828-3.58172-8-8-8"/>
        <path class="rss1" d="M18 18c0-6.62742-5.37258-12-12-12"/>
        <circle class="rss2" cx="8" cy="16" r="2"/>
    </g>
    <g id="phone" transform="translate(193 0)">
        <circle class="phone0" cx="12" cy="12" r="12"/>
        <path class="phone1" d="M14.8021 18.8293l0.726077-0.323362c0.401001-0.178589 0.581335-0.64855 0.402788-1.04969l-1.05069-2.36056c-0.178548-0.401138-0.648364-0.581551-1.04937-0.402963l-1.08912 0.485043c-0.401001 0.178588-0.870817-0.0018244-1.04937-0.402963l-1.93973-4.35795c-0.178548-0.401138 0.0017872-0.871099 0.402787-1.04969l1.08912-0.485043c0.401001-0.178589 0.581335-0.64855 0.402788-1.04969l-1.05069-2.36056c-0.178548-0.401139-0.648364-0.581551-1.04937-0.402963L8.82125 5.39229c0 0-3.63038 1.61681-0.639963 8.33532S14.8021 18.8293 14.8021 18.8293Z"/>
    </g>
    <g id="subscribe" transform="translate(224 0) scale(0.667)">
        <rect class="subscribe0" width="36" height="36"/>
        <polyline class="subscribe1" points="23.5 8 18 13.5 12.5 8"/>
        <line class="subscribe2" x1="18" y1="0.5" x2="18" y2="13.5"/>
        <path class="subscribe3" d="M34.4472 28.2764l-14 7.00002C19.7823 35.6088 19 35.1253 19 34.382V17.693c0-0.416845 0.258574-0.789965 0.648876-0.936329l13.9947-5.24799C34.2999 11.2626 35 11.7477 35 12.4487V27.382C35 27.7608 34.786 28.107 34.4472 28.2764Z"/>
        <path class="subscribe3" d="M1.55276 28.2764l14 7.00001C16.2177 35.6088 17 35.1253 17 34.382V17.693c0-0.416845-0.258574-0.789967-0.648878-0.936331L2.35642 11.5087C1.70011 11.2626 1 11.7478 1 12.4487V27.382C1 27.7608 1.21399 28.107 1.55276 28.2764Z"/>
        <line class="subscribe4" x1="27" y1="9.50866" x2="34" y2="12.1337"/>
        <line class="subscribe4" x1="9" y1="9.50866" x2="2" y2="12.1337"/>
        <polyline class="subscribe5" points="32.2617 15.2215 27.4444 24.6944 22.2806 19.1942"/>
        <line class="subscribe5" x1="30.4936" y1="24.2447" x2="32.2617" y2="26.1745"/>
        <line class="subscribe5" x1="22.2806" y1="30.9353" x2="24.2575" y2="27.0998"/>
        <line class="subscribe6" x1="6.58904" y1="16.3562" x2="3.73826" y2="15.2215"/>
        <line class="subscribe6" x1="6.58904" y1="20.0822" x2="13.7194" y2="23.1079"/>
        <line class="subscribe6" x1="3.73826" y1="22.5235" x2="13.7194" y2="27.0216"/>
        <line class="subscribe6" x1="3.73826" y1="26.1745" x2="13.7194" y2="30.9353"/>
    </g>

    <g id="news" transform="translate(284,0)">
        <svg width="24px" height="24px" viewBox="0 0 24 24" version="1.1" xmlns="http://www.w3.org/2000/svg" xmlns:xlink="http://www.w3.org/1999/xlink">
            <!-- Generator: Sketch 59.1 (86144) - https://sketch.com -->
            <title>Vanguard News</title>
            <desc>Created with Sketch.</desc>
            <g id="Page-1" stroke="none" stroke-width="1" fill="none" fill-rule="evenodd">
                <g id="footer" transform="translate(-465.000000, -52.000000)">
                    <g id="Group-7" transform="translate(83.000000, 52.000000)">
                        <g id="Social-Media" transform="translate(151.000000, 0.000000)">
                            <g id="Vanguard-News" transform="translate(231.000000, 0.000000)">
                                <rect id="XMLID_2_" fill="#96151D" fill-rule="nonzero" x="0" y="0" width="24" height="24" rx="12"></rect>
                                <g id="Icon" transform="translate(6.000000, 5.000000)">
                                    <path d="M11.4736842,10.5910931 L8.82591093,10.5910931 L8.82591093,13.2388664 L0,13.2388664 L0,0 L11.4736842,0 L11.4736842,10.5910931 Z" id="Combined-Shape" fill="#FFFFFF"></path>
                                    <polygon id="Rectangle-3" fill="#808080" points="1.43421053 1.43421053 5.40587045 1.43421053 5.40587045 6.45394737 1.43421053 6.45394737"></polygon>
                                    <polygon id="Rectangle-3-Copy-3" fill="#808080" points="6.45394737 5.73684211 10.4256073 5.73684211 10.4256073 6.45394737 6.45394737 6.45394737"></polygon>
                                    <polygon id="Rectangle-3-Copy-6" fill="#808080" points="6.45394737 7.88815789 10.4256073 7.88815789 10.4256073 8.60526316 6.45394737 8.60526316"></polygon>
                                    <polygon id="Rectangle-3-Copy-7" fill="#808080" points="1.43421053 7.88815789 5.40587045 7.88815789 5.40587045 8.60526316 1.43421053 8.60526316"></polygon>
                                    <polygon id="Rectangle-3-Copy-8" fill="#808080" points="1.43421053 10.0394737 5.40587045 10.0394737 5.40587045 10.7565789 1.43421053 10.7565789"></polygon>
                                    <polygon id="Rectangle-3-Copy-4" fill="#808080" points="6.45394737 1.43421053 10.4256073 1.43421053 10.4256073 2.15131579 6.45394737 2.15131579"></polygon>
                                    <polygon id="Rectangle-3-Copy-5" fill="#808080" points="6.45394737 3.58552632 10.4256073 3.58552632 10.4256073 4.30263158 6.45394737 4.30263158"></polygon>
                                    <polygon id="Rectangle-2" fill="#B3B3B3" points="8.82591093 10.5910931 11.4736842 10.5910931 8.82591093 13.2388664"></polygon>
                                </g>
                            </g>
                        </g>
                    </g>
                </g>
            </g>
        </svg>
    </g>

    <g id="instagram" transform="translate(257,0)">
        <svg width="24px" height="24px" viewBox="0 0 24 24" version="1.1" xmlns="http://www.w3.org/2000/svg" xmlns:xlink="http://www.w3.org/1999/xlink">
            <!-- Generator: Sketch 59.1 (86144) - https://sketch.com -->
            <title>Instagram</title>
            <desc>Created with Sketch.</desc>
            <defs>
                <polygon id="path-5" points="0 0.00441666667 13.9955833 0.00441666667 13.9955833 13.9983333 0 13.9983333"></polygon>
            </defs>
            <g id="Page-1" stroke="none" stroke-width="1" fill="none" fill-rule="evenodd">
                <g id="footer" transform="translate(-432.000000, -52.000000)">
                    <g id="Group-7" transform="translate(83.000000, 52.000000)">
                        <g id="Social-Media" transform="translate(151.000000, 0.000000)">
                            <g id="Instagram" transform="translate(198.000000, 0.000000)">
                                <circle id="Oval" fill="#D93175" fill-rule="nonzero" cx="12" cy="12" r="12"></circle>
                                <g id="Group-3" transform="translate(5.000000, 5.000000)">
                                    <mask id="mask-4" fill="white">
                                        <use xlink:href="#path-5"></use>
                                    </mask>
                                    <g id="Clip-2"></g>
                                    <path d="M6.99780556,0.00441666667 C5.09730556,0.00441666667 4.859,0.0124722222 4.11261111,0.0465277778 C3.36777778,0.0805 2.85908333,0.198805556 2.41397222,0.371805556 C1.95380556,0.550611111 1.56355556,0.789888889 1.1745,1.17891667 C0.785472222,1.56797222 0.546194444,1.95822222 0.367388889,2.41838889 C0.194388889,2.8635 0.0760833333,3.37219444 0.0421111111,4.11702778 C0.00805555556,4.86341667 0,5.10172222 0,7.00222222 C0,8.90269444 0.00805555556,9.141 0.0421111111,9.88738889 C0.0760833333,10.6322222 0.194388889,11.1409167 0.367388889,11.5860278 C0.546194444,12.0461944 0.785472222,12.4364444 1.1745,12.8255 C1.56355556,13.2145278 1.95380556,13.4538056 2.41397222,13.6326389 C2.85908333,13.8056111 3.36777778,13.9239167 4.11261111,13.9578889 C4.859,13.9919444 5.09730556,14 6.99780556,14 C8.89827778,14 9.13658333,13.9919444 9.88297222,13.9578889 C10.6278056,13.9239167 11.1365,13.8056111 11.5816111,13.6326389 C12.0417778,13.4538056 12.4320278,13.2145278 12.8210833,12.8255 C13.2101111,12.4364444 13.4493889,12.0461944 13.6282222,11.5860278 C13.8011944,11.1409167 13.9195,10.6322222 13.9534722,9.88738889 C13.9875278,9.141 13.9955833,8.90269444 13.9955833,7.00222222 C13.9955833,5.10172222 13.9875278,4.86341667 13.9534722,4.11702778 C13.9195,3.37219444 13.8011944,2.8635 13.6282222,2.41838889 C13.4493889,1.95822222 13.2101111,1.56797222 12.8210833,1.17891667 C12.4320278,0.789888889 12.0417778,0.550611111 11.5816111,0.371805556 C11.1365,0.198805556 10.6278056,0.0805 9.88297222,0.0465277778 C9.13658333,0.0124722222 8.89827778,0.00441666667 6.99780556,0.00441666667 Z M6.99780556,1.26527778 C8.86627778,1.26527778 9.08761111,1.27241667 9.8255,1.30608333 C10.5077778,1.33719444 10.8783056,1.45119444 11.1248889,1.54702778 C11.4515278,1.67397222 11.6846389,1.82561111 11.9295,2.0705 C12.1743889,2.31536111 12.3260278,2.54847222 12.4529722,2.87511111 C12.5488056,3.12169444 12.6628056,3.49222222 12.6939167,4.1745 C12.7275833,4.91238889 12.7347222,5.13372222 12.7347222,7.00222222 C12.7347222,8.87069444 12.7275833,9.09202778 12.6939167,9.82991667 C12.6628056,10.5121944 12.5488056,10.8827222 12.4529722,11.1293056 C12.3260278,11.4559444 12.1743889,11.6890556 11.9295,11.9339167 C11.6846389,12.1788056 11.4515278,12.3304444 11.1248889,12.4573889 C10.8783056,12.5532222 10.5077778,12.6672222 9.8255,12.6983333 C9.08772222,12.732 8.86641667,12.7391389 6.99780556,12.7391389 C5.12916667,12.7391389 4.90788889,12.732 4.17008333,12.6983333 C3.48780556,12.6672222 3.11727778,12.5532222 2.87069444,12.4573889 C2.54405556,12.3304444 2.31094444,12.1788056 2.06608333,11.9339167 C1.82122222,11.6890556 1.66955556,11.4559444 1.54261111,11.1293056 C1.44677778,10.8827222 1.33277778,10.5121944 1.30166667,9.82991667 C1.268,9.09202778 1.26086111,8.87069444 1.26086111,7.00222222 C1.26086111,5.13372222 1.268,4.91238889 1.30166667,4.1745 C1.33277778,3.49222222 1.44677778,3.12169444 1.54261111,2.87511111 C1.66955556,2.54847222 1.82119444,2.31536111 2.06608333,2.0705 C2.31094444,1.82561111 2.54405556,1.67397222 2.87069444,1.54702778 C3.11727778,1.45119444 3.48780556,1.33719444 4.17008333,1.30608333 C4.90797222,1.27241667 5.12930556,1.26527778 6.99780556,1.26527778 L6.99780556,1.26527778 Z" id="Fill-1" fill="#FFFFFF" mask="url(#mask-4)"></path>
                                </g>
                                <path d="M11.9978056,14.3348056 C10.7095278,14.3348056 9.66519444,13.2904722 9.66519444,12.0022222 C9.66519444,10.7139444 10.7095278,9.66961111 11.9978056,9.66961111 C13.2860556,9.66961111 14.3303889,10.7139444 14.3303889,12.0022222 C14.3303889,13.2904722 13.2860556,14.3348056 11.9978056,14.3348056 Z M11.9978056,8.40875 C10.0131667,8.40875 8.40433333,10.0175833 8.40433333,12.0022222 C8.40433333,13.9868333 10.0131667,15.5956667 11.9978056,15.5956667 C13.9824167,15.5956667 15.59125,13.9868333 15.59125,12.0022222 C15.59125,10.0175833 13.9824167,8.40875 11.9978056,8.40875 L11.9978056,8.40875 Z" id="Fill-4" fill="#FFFFFF"></path>
                                <path d="M16.5729722,8.26677778 C16.5729722,8.73055556 16.197,9.1065 15.7332222,9.1065 C15.2694722,9.1065 14.8935,8.73055556 14.8935,8.26677778 C14.8935,7.803 15.2694722,7.42702778 15.7332222,7.42702778 C16.197,7.42702778 16.5729722,7.803 16.5729722,8.26677778" id="Fill-5" fill="#FFFFFF"></path>
                            </g>
                        </g>
                    </g>
                </g>
            </g>
        </svg>
    </g>
    
  <g id="no-ship-signature" transform="translate(2 40)">
    <rect class="st5" x="2" y="25" width="157" height="44"/>
    <path class="st7" d="M13.1132011 0.0692208c0 0 0 0.1323673 0 0.1544487 c1.8382702 0.7159541 1.1537609 2.5227785 1.1537609 2.5227785l-3.3645153 10.7446976L6.3548093 0.0980605H0v0.190064 C1.0926075 0.5374315 1.6211036 2.435987 1.6211036 2.435987L5.7931304 14.054388 c1.1537614 3.267746 3.3118739 3.9122963 3.3118739 3.9122963l2.6669769 1.0349274l6.418395-18.9323902H13.1132011z"/>
    <path class="st7" d="M39.1689987 18.8626251h5.7955589l-0.0050354-0.1594868c0.0050354 0-1.1723366-0.0305767-1.1351738-2.1275349 c0 0-0.0067749-6.4590664-0.0100746-6.4625416c0.0100746-4.4908099-4.5366936-4.328022-4.5366936-4.328022 c-1.9037666 0.0373526-3.1930428 1.1911139-3.5087128 1.5065966V5.8020658l-5.8396912 0.2289801v0.1697373 c1.2079659 0.0762515 1.1028576 1.9086318 1.1028576 1.9527602v8.7714367 c-0.3971539 0.0034752-1.0893078 0.0034752-1.0893078-0.0135517c-1.9544964-0.1118832-1.957798-2.1105089-1.9510231-2.1649046 c0 0-0.0509033-4.0479813-0.0509033-4.0243368c0.0236282-2.8976941-1.7034531-3.824039-1.6796513-3.8478408 c-3.2642708-2.0224266-7.9444675-0.6346469-7.9444675-0.6346469s-0.9993134 3.1659384-1.0246773 3.1421366 c4.9684181-2.1716633 5.7794056-0.0203266 5.7523022-0.0948582c0.0847816 0.2136917 0.0950317 0.400281 0.0576801 0.5700188 c-0.162775 0.9416332-1.8865681 1.1909399-1.9070549 1.1909399c-2.0460682 0.3665771-3.1216507 0.7500057-3.1216507 0.7500057 c-3.144742 1.0687895-2.7316046 3.7257071-2.7316046 3.7494917c0.5370216 3.4135246 5.144063 3.3184929 5.144063 3.3184929 h1.9749985l0.9975758-2.04953c-2.0462151 0.4140072-2.6807022-0.7039661-2.6807022-0.7039661 c-0.8516407-1.4167938 0.4378071-2.248106 0.4378071-2.248106c0.5055637-0.3867302 2.12076-0.7498322 2.12076-0.7498322v2.0663643 c0.1627884 3.8277054 4.2380447 3.6918278 4.3636551 3.6782932h3.3355007l0 0l5.8584538 0.0034752v-0.1527119 c-0.0034752 0-1.084095-0.0408268-1.1316948-1.8594818l0.0034714-5.9143791l0 0 c-0.0373497-2.1886892 1.7609596-2.2192659 1.7576599-2.2192659c1.7576561-0.0168524 1.6320496 1.5404739 1.6422997 1.8900423 c0 0 0.0034752 5.9687748 0.0034752 5.9755497c0 0 0.0135498 0 0.0406532 0L39.1689987 16.58568V18.8626251z"/>
    <path class="st7" d="M65.0439377 5.7850399H51.5134277c-1.593132 0.0764427-3.3761559 0.3869038-4.7809601 1.7493186 c0 0-2.4465103 2.3870931-0.3495522 5.4103961c0.0203285 0 1.0010529 1.4015055 2.6534271 1.9306965 c0 0 0.0152893 0 0.0373535 0.0069494l-0.0271034 0.0067749c0.1492348-0.0067749-1.1638374 0.1492205-1.7441063 0.492012 c-0.3224487 0.2051792-0.4240837 0.4308586-0.3359871 0.9941006c0.0882416 0.5564671 0.5905037 2.3752804 2.5076485 2.4838619 c1.3724937 0.0611553 3.3389778-0.1832867 4.3772087 0.590519c0 0 0.7465286 0.5394421 0.7465286 1.452219 c0 0.6888695-0.0797424 2.0936737-2.9487724 2.2463684c-0.135685 0-2.3818779-0.0170078-2.8214226-1.6118774 c-0.0017395-0.0100765-0.2357559-1.3572197 1.0790558-1.5437927c0 0-1.7270813-0.4039307-3.1878281 0 c-1.9800377 0.549675-2.5653458 2.3718033-1.4506721 3.6781025c-0.0152893-0.0168686 1.6134567 1.9173183 6.0059509 1.8832664 c4.4298477 0.1170979 8.8649063-1.2079659 8.077549-5.6496258c-0.0203285 0-0.5309296-3.169239-5.3256149-3.1556873h-2.3667679 c0 0-1.0111237 0.0745316-1.2147255-0.4037743c-0.0034752 0-0.4478989-0.7194109 0.9501305-0.7670135h0.001564l0.2562561-0.0304203 c0 0 4.1379776-0.5055637 5.417347-2.3142824c0.018589-0.0220642 1.9560623-2.168189-0.0356026-4.7470827 c-0.0017357 0-0.1765251-0.2392311-0.3106461-0.3495512h3.5544052c-0.0033035 1.6237097-0.0118141 6.3793058 0.0034752 6.4131842 c-0.0067787 4.4892635 4.6181679 4.3229828 4.6181679 4.3229828c1.9850769-0.0338612 3.3016281-1.2927303 3.5425949-1.5404739 v1.5269394l5.8973694 0.0034752v-0.1527119c-1.2639084-0.0576782-1.1570587-2.0834064-1.1570587-2.1343098V9.656682l0 0 l0.0032959-3.8546162l-5.841423 0.2289801v0.1697373c1.206398 0.0762515 1.1045914 1.9086318 1.1045914 1.9527602v4.0549307 v1.5201645c-0.0034714 0-0.0034714-0.0050383-0.0034714-0.0050383c-0.0694962 2.495676-1.8103027 2.1970291-1.8035278 2.2276058 c-1.6405563 0.0170259-1.5981674-1.7950106-1.5981674-1.7950106V5.7850399z M51.7085304 12.9006262 c-0.1289101 0.0305777-1.8323631-0.1221342-1.6440353-2.5041885c0.0205154 0.0203266-0.0474281-2.12076 1.6457748-2.12076 c0 0 1.5387535-0.0677557 1.576107 2.0834074C53.286377 10.3964376 53.4934654 12.9006262 51.7085304 12.9006262z"/>
    <path class="st7" d="M95.2012253 7.4952688v-1.693203l-5.8396912 0.2289801v0.1697373 c1.2097015 0.0762515 1.102684 1.9086318 1.102684 1.9562345v7.7330341l0 0v1.0349283 c-0.3799591 0.0034752-1.1638412 0.0067749-1.1638412-0.0135517c-1.9544983-0.1118832-1.9544983-2.1105089-1.9477234-2.1649046 c0 0-0.0541992-4.0479813-0.0541992-4.0243368c0.0253601-2.8976941-1.7034531-3.824039-1.679657-3.8478408 c-3.264267-2.0224266-7.9435959-0.6346469-7.9435959-0.6346469s-0.9975739 3.1659384-1.0246658 3.1421366 c4.9675369-2.1716633 5.7785263-0.0203266 5.7548981-0.0948582c0.0847778 0.2136917 0.0950317 0.400281 0.0542068 0.5700188 c-0.1627731 0.9416332-1.8865738 1.1909399-1.9068985 1.1909399c-2.0462265 0.3665771-3.1200714 0.7500057-3.1200714 0.7500057 c-3.1438751 1.0687895-2.729866 3.7257071-2.729866 3.7494917c0.5361404 3.4135246 5.1407623 3.3184929 5.1407623 3.3184929 h1.974823l1.0010529-2.04953c-2.04953 0.4140072-2.6841812-0.7039661-2.6841812-0.7039661 c-0.8498993-1.4167938 0.4411087-2.248106 0.4411087-2.248106c0.5022659-0.3867302 2.1207581-0.7498322 2.1207581-0.7498322 v2.0663643c0.1612244 3.8277054 4.2382202 3.6918278 4.3603592 3.6782932h3.4067307l0 0h5.8940659v-0.15271 c-0.0541992 0.0067749-1.184166 0.0917301-1.1603622-2.1308365V11.331296h0.0033035 c0.0034714 0.0152712-0.1594849-2.9809132 3.7766113-2.3193378v-3.213367 C98.9778366 5.7985911 96.4974442 5.0419836 95.2012253 7.4952688z"/>
    <path class="st7" d="M112.9409409 16.5823784l-0.0033035-16.4810162l-5.9076233 0.2308913v0.1627879 c1.2079697 0.0847818 1.1028595 1.9138439 1.1028595 1.9595356v4.268796 c-4.1296387-2.6348362-7.1258392 0.7821465-7.1055069 0.7176743c-1.9289627 1.9272385-1.8459167 4.9710426-1.8627548 4.950716 c0 3.2098923 1.8627548 4.8454161 1.8627548 4.8454161c2.4532852 2.6468239 5.4138641 1.6151962 5.4138641 1.6151962 s1.2776337-2.2870216 1.2776337-2.3073483c-3.6476974 0.6073704-3.6476974-4.1329374-3.6273727-4.153264 c0-4.0719566 2.1614304-3.8377647 2.1801758-3.8615656c1.8612061 0.0203266 1.8612061 2.1648703 1.8612061 2.0868816v0.1662626 v8.0792837v-0.0034752v0.0034752l5.9653015 0.0033016v-0.1560135 C114.094696 18.7099133 112.9105301 18.8252735 112.9409409 16.5823784z"/>
    <path class="st7" d="M114.1553192 1.8865614c0 0.9804001 0.7998047 1.7811902 1.7841949 1.7811902 c0.9804993 0 1.7832031-0.8007901 1.7832031-1.7811902c0-0.9843999-0.8027039-1.7851999-1.7832031-1.7851999 C114.9551239 0.1013615 114.1553192 0.9021615 114.1553192 1.8865614z M114.4034195 1.8865614 c0-0.8515999 0.6884995-1.5371 1.5360947-1.5371c0.8447037 0 1.535202 0.6855 1.535202 1.5371 c0 0.8476-0.6904984 1.5341902-1.535202 1.5341902C115.0919189 3.4207516 114.4034195 2.7341614 114.4034195 1.8865614z"/>
    <path class="st7" d="M115.5469131 1.7488614h0.4794998c0.3233032-0.0146999 0.3964996-0.1611099 0.3964996-0.3271999 c0-0.1689099-0.0731964-0.3125-0.3964996-0.3261h-0.4794998V1.7488614z M115.5528183 1.9998615v0.9471998h-0.2891006V0.8455614 h0.7471008c0.3535004 0 0.7177963 0.1113 0.7177963 0.5263c0 0.253-0.1533966 0.4483-0.3974915 0.5088v0.0058999 c0.2558899 0.0576 0.2900009 0.1914001 0.3212891 0.4297001c0.0332031 0.2089999 0.0547104 0.4325998 0.1299057 0.6307998 h-0.3096008c-0.0253983-0.1229999-0.0615005-0.2616999-0.0771027-0.3866999 c-0.0195999-0.1914001-0.0195999-0.3632998-0.1171951-0.4668c-0.0860062-0.0936999-0.2022018-0.0878999-0.3194046-0.0936999 H115.5528183z"/>
  </g>

    <g id="vanguard-logo" transform="translate(2 120)">
        <rect class="st5" x="2" y="25" width="157" height="44"/>
        <path class="vanguard0" d="M13.1132011 0.0692208c0 0 0 0.1323673 0 0.1544487 c1.8382702 0.7159541 1.1537609 2.5227785 1.1537609 2.5227785l-3.3645153 10.7446976L6.3548093 0.0980605H0v0.190064 C1.0926075 0.5374315 1.6211036 2.435987 1.6211036 2.435987L5.7931304 14.054388 c1.1537614 3.267746 3.3118739 3.9122963 3.3118739 3.9122963l2.6669769 1.0349274l6.418395-18.9323902H13.1132011z"/>
        <path class="vanguard0" d="M39.1689987 18.8626251h5.7955589l-0.0050354-0.1594868c0.0050354 0-1.1723366-0.0305767-1.1351738-2.1275349 c0 0-0.0067749-6.4590664-0.0100746-6.4625416c0.0100746-4.4908099-4.5366936-4.328022-4.5366936-4.328022 c-1.9037666 0.0373526-3.1930428 1.1911139-3.5087128 1.5065966V5.8020658l-5.8396912 0.2289801v0.1697373 c1.2079659 0.0762515 1.1028576 1.9086318 1.1028576 1.9527602v8.7714367 c-0.3971539 0.0034752-1.0893078 0.0034752-1.0893078-0.0135517c-1.9544964-0.1118832-1.957798-2.1105089-1.9510231-2.1649046 c0 0-0.0509033-4.0479813-0.0509033-4.0243368c0.0236282-2.8976941-1.7034531-3.824039-1.6796513-3.8478408 c-3.2642708-2.0224266-7.9444675-0.6346469-7.9444675-0.6346469s-0.9993134 3.1659384-1.0246773 3.1421366 c4.9684181-2.1716633 5.7794056-0.0203266 5.7523022-0.0948582c0.0847816 0.2136917 0.0950317 0.400281 0.0576801 0.5700188 c-0.162775 0.9416332-1.8865681 1.1909399-1.9070549 1.1909399c-2.0460682 0.3665771-3.1216507 0.7500057-3.1216507 0.7500057 c-3.144742 1.0687895-2.7316046 3.7257071-2.7316046 3.7494917c0.5370216 3.4135246 5.144063 3.3184929 5.144063 3.3184929 h1.9749985l0.9975758-2.04953c-2.0462151 0.4140072-2.6807022-0.7039661-2.6807022-0.7039661 c-0.8516407-1.4167938 0.4378071-2.248106 0.4378071-2.248106c0.5055637-0.3867302 2.12076-0.7498322 2.12076-0.7498322v2.0663643 c0.1627884 3.8277054 4.2380447 3.6918278 4.3636551 3.6782932h3.3355007l0 0l5.8584538 0.0034752v-0.1527119 c-0.0034752 0-1.084095-0.0408268-1.1316948-1.8594818l0.0034714-5.9143791l0 0 c-0.0373497-2.1886892 1.7609596-2.2192659 1.7576599-2.2192659c1.7576561-0.0168524 1.6320496 1.5404739 1.6422997 1.8900423 c0 0 0.0034752 5.9687748 0.0034752 5.9755497c0 0 0.0135498 0 0.0406532 0L39.1689987 16.58568V18.8626251z"/>
        <path class="vanguard0" d="M65.0439377 5.7850399H51.5134277c-1.593132 0.0764427-3.3761559 0.3869038-4.7809601 1.7493186 c0 0-2.4465103 2.3870931-0.3495522 5.4103961c0.0203285 0 1.0010529 1.4015055 2.6534271 1.9306965 c0 0 0.0152893 0 0.0373535 0.0069494l-0.0271034 0.0067749c0.1492348-0.0067749-1.1638374 0.1492205-1.7441063 0.492012 c-0.3224487 0.2051792-0.4240837 0.4308586-0.3359871 0.9941006c0.0882416 0.5564671 0.5905037 2.3752804 2.5076485 2.4838619 c1.3724937 0.0611553 3.3389778-0.1832867 4.3772087 0.590519c0 0 0.7465286 0.5394421 0.7465286 1.452219 c0 0.6888695-0.0797424 2.0936737-2.9487724 2.2463684c-0.135685 0-2.3818779-0.0170078-2.8214226-1.6118774 c-0.0017395-0.0100765-0.2357559-1.3572197 1.0790558-1.5437927c0 0-1.7270813-0.4039307-3.1878281 0 c-1.9800377 0.549675-2.5653458 2.3718033-1.4506721 3.6781025c-0.0152893-0.0168686 1.6134567 1.9173183 6.0059509 1.8832664 c4.4298477 0.1170979 8.8649063-1.2079659 8.077549-5.6496258c-0.0203285 0-0.5309296-3.169239-5.3256149-3.1556873h-2.3667679 c0 0-1.0111237 0.0745316-1.2147255-0.4037743c-0.0034752 0-0.4478989-0.7194109 0.9501305-0.7670135h0.001564l0.2562561-0.0304203 c0 0 4.1379776-0.5055637 5.417347-2.3142824c0.018589-0.0220642 1.9560623-2.168189-0.0356026-4.7470827 c-0.0017357 0-0.1765251-0.2392311-0.3106461-0.3495512h3.5544052c-0.0033035 1.6237097-0.0118141 6.3793058 0.0034752 6.4131842 c-0.0067787 4.4892635 4.6181679 4.3229828 4.6181679 4.3229828c1.9850769-0.0338612 3.3016281-1.2927303 3.5425949-1.5404739 v1.5269394l5.8973694 0.0034752v-0.1527119c-1.2639084-0.0576782-1.1570587-2.0834064-1.1570587-2.1343098V9.656682l0 0 l0.0032959-3.8546162l-5.841423 0.2289801v0.1697373c1.206398 0.0762515 1.1045914 1.9086318 1.1045914 1.9527602v4.0549307 v1.5201645c-0.0034714 0-0.0034714-0.0050383-0.0034714-0.0050383c-0.0694962 2.495676-1.8103027 2.1970291-1.8035278 2.2276058 c-1.6405563 0.0170259-1.5981674-1.7950106-1.5981674-1.7950106V5.7850399z M51.7085304 12.9006262 c-0.1289101 0.0305777-1.8323631-0.1221342-1.6440353-2.5041885c0.0205154 0.0203266-0.0474281-2.12076 1.6457748-2.12076 c0 0 1.5387535-0.0677557 1.576107 2.0834074C53.286377 10.3964376 53.4934654 12.9006262 51.7085304 12.9006262z"/>
        <path class="vanguard0" d="M95.2012253 7.4952688v-1.693203l-5.8396912 0.2289801v0.1697373 c1.2097015 0.0762515 1.102684 1.9086318 1.102684 1.9562345v7.7330341l0 0v1.0349283 c-0.3799591 0.0034752-1.1638412 0.0067749-1.1638412-0.0135517c-1.9544983-0.1118832-1.9544983-2.1105089-1.9477234-2.1649046 c0 0-0.0541992-4.0479813-0.0541992-4.0243368c0.0253601-2.8976941-1.7034531-3.824039-1.679657-3.8478408 c-3.264267-2.0224266-7.9435959-0.6346469-7.9435959-0.6346469s-0.9975739 3.1659384-1.0246658 3.1421366 c4.9675369-2.1716633 5.7785263-0.0203266 5.7548981-0.0948582c0.0847778 0.2136917 0.0950317 0.400281 0.0542068 0.5700188 c-0.1627731 0.9416332-1.8865738 1.1909399-1.9068985 1.1909399c-2.0462265 0.3665771-3.1200714 0.7500057-3.1200714 0.7500057 c-3.1438751 1.0687895-2.729866 3.7257071-2.729866 3.7494917c0.5361404 3.4135246 5.1407623 3.3184929 5.1407623 3.3184929 h1.974823l1.0010529-2.04953c-2.04953 0.4140072-2.6841812-0.7039661-2.6841812-0.7039661 c-0.8498993-1.4167938 0.4411087-2.248106 0.4411087-2.248106c0.5022659-0.3867302 2.1207581-0.7498322 2.1207581-0.7498322 v2.0663643c0.1612244 3.8277054 4.2382202 3.6918278 4.3603592 3.6782932h3.4067307l0 0h5.8940659v-0.15271 c-0.0541992 0.0067749-1.184166 0.0917301-1.1603622-2.1308365V11.331296h0.0033035 c0.0034714 0.0152712-0.1594849-2.9809132 3.7766113-2.3193378v-3.213367 C98.9778366 5.7985911 96.4974442 5.0419836 95.2012253 7.4952688z"/>
        <path class="vanguard0" d="M112.9409409 16.5823784l-0.0033035-16.4810162l-5.9076233 0.2308913v0.1627879 c1.2079697 0.0847818 1.1028595 1.9138439 1.1028595 1.9595356v4.268796 c-4.1296387-2.6348362-7.1258392 0.7821465-7.1055069 0.7176743c-1.9289627 1.9272385-1.8459167 4.9710426-1.8627548 4.950716 c0 3.2098923 1.8627548 4.8454161 1.8627548 4.8454161c2.4532852 2.6468239 5.4138641 1.6151962 5.4138641 1.6151962 s1.2776337-2.2870216 1.2776337-2.3073483c-3.6476974 0.6073704-3.6476974-4.1329374-3.6273727-4.153264 c0-4.0719566 2.1614304-3.8377647 2.1801758-3.8615656c1.8612061 0.0203266 1.8612061 2.1648703 1.8612061 2.0868816v0.1662626 v8.0792837v-0.0034752v0.0034752l5.9653015 0.0033016v-0.1560135 C114.094696 18.7099133 112.9105301 18.8252735 112.9409409 16.5823784z"/>
        <path class="vanguard0" d="M114.1553192 1.8865614c0 0.9804001 0.7998047 1.7811902 1.7841949 1.7811902 c0.9804993 0 1.7832031-0.8007901 1.7832031-1.7811902c0-0.9843999-0.8027039-1.7851999-1.7832031-1.7851999 C114.9551239 0.1013615 114.1553192 0.9021615 114.1553192 1.8865614z M114.4034195 1.8865614 c0-0.8515999 0.6884995-1.5371 1.5360947-1.5371c0.8447037 0 1.535202 0.6855 1.535202 1.5371 c0 0.8476-0.6904984 1.5341902-1.535202 1.5341902C115.0919189 3.4207516 114.4034195 2.7341614 114.4034195 1.8865614z"/>
        <path class="vanguard0" d="M115.5469131 1.7488614h0.4794998c0.3233032-0.0146999 0.3964996-0.1611099 0.3964996-0.3271999 c0-0.1689099-0.0731964-0.3125-0.3964996-0.3261h-0.4794998V1.7488614z M115.5528183 1.9998615v0.9471998h-0.2891006V0.8455614 h0.7471008c0.3535004 0 0.7177963 0.1113 0.7177963 0.5263c0 0.253-0.1533966 0.4483-0.3974915 0.5088v0.0058999 c0.2558899 0.0576 0.2900009 0.1914001 0.3212891 0.4297001c0.0332031 0.2089999 0.0547104 0.4325998 0.1299057 0.6307998 h-0.3096008c-0.0253983-0.1229999-0.0615005-0.2616999-0.0771027-0.3866999 c-0.0195999-0.1914001-0.0195999-0.3632998-0.1171951-0.4668c-0.0860062-0.0936999-0.2022018-0.0878999-0.3194046-0.0936999 H115.5528183z"/>
    </g>
    <g id="white-signature">
        <rect class="st5" x="161" y="25" width="91" height="20"/>
        <path class="st1" d="M248.557 25.9909c0 0.51672 0.420853 0.937567 0.938019 0.937567 0.516266 0 0.937118-0.420847 0.937118-0.937567s-0.420853-0.938433-0.937118-0.938433C248.978 25.0525 248.557 25.4742 248.557 25.9909ZM248.687 25.9909c0-0.445669 0.362213-0.808378 0.80838-0.808378 0.445267 0 0.80748 0.362709 0.80748 0.808378 0 0.445713-0.362213 0.807968-0.80748 0.807968C249.049 26.7989 248.687 26.4366 248.687 25.9909Z"/>
        <path class="st1" d="M249.288 25.9185h0.253021c0.169601-0.0075512 0.207779-0.0843258 0.207779-0.171331 0-0.0879154-0.0381775-0.164694-0.207779-0.171785h-0.253021V25.9185ZM249.292 26.0504v0.498537h-0.153595v-1.10494h0.394669c0.185562 0 0.376434 0.0585957 0.376434 0.27702 0 0.133143-0.07901 0.23529-0.206879 0.266333v0.0031414c0.132324 0.0315037 0.150055 0.102963 0.166916 0.226835 0.0168762 0.110098 0.0293274 0.227289 0.0692749 0.331615h-0.163818c-0.0133209-0.065733-0.0319672-0.137648-0.039505-0.203333 -0.0124054-0.0994167-0.0124054-0.190014-0.0625916-0.245474 -0.0444183-0.0497303-0.105652-0.0452747-0.166931-0.0497303H249.292Z"/>
        <path class="st1" d="M191.013 39.4004h4.44061l-0.000885-0.119831c0.000885 0-0.901459-0.023941-0.874115-1.62997 0 0-0.0041962-4.95178-0.0050812-4.95344 0.0050812-3.4407-3.47664-3.31656-3.47664-3.31656 -1.45883 0.0273514-2.44762 0.913475-2.68993 1.15569l0.000885-1.14203 -4.4749 0.176392v0.126677c0.926285 0.0624962 0.84581 1.46226 0.84581 1.49987v6.71877c-0.304733 0.0025406-0.837204 0.005085-0.837204-0.0094681 -1.4948-0.0846863-1.49655-1.61716-1.49225-1.6617 0 0-0.0393677-3.09819-0.0393677-3.07943 0.0179749-2.22328-1.3056-2.93303-1.28842-2.95012 -2.50241-1.55037-6.08696-0.48628-6.08696-0.48628s-0.767075 2.42798-0.785034 2.40993c3.80624-1.66766 4.42868-0.017971 4.40808-0.0753059 0.0650482 0.162708 0.0753784 0.308231 0.0445251 0.436653 -0.12413 0.722549-1.44682 0.913395-1.46227 0.913395 -1.56833 0.279129-2.39195 0.572807-2.39195 0.572807 -2.4108 0.821865-2.09319 2.85597-2.09319 2.87482 0.412643 2.61452 3.94241 2.54264 3.94241 2.54264h1.51276l0.76532-1.57017c-1.5701 0.316822-2.05463-0.541073-2.05463-0.541073 -0.653198-1.08548 0.336456-1.71903 0.336456-1.71903 0.386093-0.299648 1.62314-0.577015 1.62314-0.577015v1.58552c0.125 2.93135 3.24634 2.82862 3.34399 2.8166h2.55721v0.0008774l4.48856 0.000782v-0.11808c-0.002533 0-0.82869-0.0291023-0.868149-1.4229l0.004303-4.52967v-0.001667c-0.0316467-1.67713 1.35013-1.69852 1.34837-1.70106 1.34584-0.0137634 1.24818 1.1805 1.25677 1.44674 0 0 0.0017548 4.57683 0.000885 4.57851 0 0 0.0111237 0 0.0334015 0l-0.0325317 0.0042953V39.4004Z"/>
        <path class="st1" d="M171.046 24.9999c0 0 0 0.102743 0 0.118172 1.40913 0.548691 0.883499 1.9339 0.883499 1.9339l-2.57771 8.23407 -3.48357-10.263H161v0.145523c0.834747 0.19006 1.24135 1.64373 1.24135 1.64373l3.19585 8.90261c0.883499 2.50671 2.53923 3.0007 2.53923 3.0007l2.04445 0.794418 4.91576-14.5101H171.046Z"/>
        <path class="st1" d="M247.541 37.6523l-0.0025482-12.6276 -4.52626 0.176382v0.127554c0.924622 0.0625057 0.844925 1.46305 0.844925 1.4982v3.27203c-3.16331-2.01956-5.46025 0.598404-5.44569 0.550451 -1.4776 1.47848-1.41431 3.80968-1.42964 3.79425 0 2.45876 1.42964 3.71211 1.42964 3.71211 1.88174 2.02726 4.14957 1.2388 4.14957 1.2388s0.980286-1.75418 0.980286-1.76953c-2.79689 0.467434-2.79689-3.16595-2.78156-3.18138 0-3.11958 1.65662-2.94241 1.67204-2.9595 1.42535 0.0170937 1.42456 1.6574 1.42456 1.59831l0.0016785 0.128437v6.18962l0.0008698-0.000782v0.000782l4.56903 0.0035057v-0.121586C248.427 39.2823 247.518 39.3731 247.541 37.6523Z"/>
        <path class="st1" d="M233.949 30.6922v-1.2979l-4.47488 0.176392v0.126677c0.924606 0.0624962 0.845886 1.46226 0.845886 1.50075l-0.0026245 5.92426 0 0 0.000885 0.793636c-0.291061 0.0025406-0.89122 0.005085-0.89122-0.0094681 -1.49733-0.0846863-1.49908-1.61716-1.49391-1.6617 0 0-0.0376892-3.09819-0.0376892-3.07943 0.0162964-2.22328-1.30727-2.93303-1.28842-2.95012 -2.50241-1.55037-6.08775-0.48628-6.08775-0.48628s-0.765411 2.42798-0.785934 2.40993c3.80794-1.66766 4.42781-0.017971 4.40897-0.0753059 0.0650482 0.162708 0.0736389 0.308231 0.0427856 0.436653 -0.12413 0.722549-1.44508 0.913395-1.46227 0.913395 -1.56746 0.279129-2.3902 0.572807-2.3902 0.572807 -2.40993 0.821865-2.09232 2.85597-2.09232 2.87482 0.411774 2.61452 3.93977 2.54264 3.93977 2.54264h1.51364l0.76532-1.57017c-1.56921 0.316822-2.05295-0.541073-2.05295-0.541073 -0.652328-1.08548 0.334702-1.71903 0.334702-1.71903 0.386169-0.299648 1.62575-0.577015 1.62575-0.577015v1.58552c0.123352 2.93135 3.24643 2.82862 3.34059 2.8166h2.61287v0.0008774h4.51503v-0.117298c-0.0427704 0.0025444-0.90918 0.0693436-0.888565-1.63348l0.0016632-4.02024h0.0017548c0.0016632 0.0136757-0.12413-2.27895 2.89366-1.77391v-2.46218C236.844 29.3925 234.941 28.8087 233.949 30.6922Z"/>
        <path class="st1" d="M210.84 29.3806h-10.3675c-1.21996 0.0598755-2.58719 0.29447-3.66328 1.34067 0 0-1.87402 1.82862-0.266235 4.14526 0.0136719 0 0.764435 1.07355 2.0298 1.48014 0.000885-0.0007896 0.0128021 0 0.030777 0.0051727l-0.0213928 0.0042953c0.114746-0.003418-0.893753 0.113003-1.33725 0.376698 -0.246521 0.157536-0.325333 0.330406-0.255981 0.761902 0.0693359 0.426319 0.451218 1.82011 1.92198 1.90401 1.04961 0.0461998 2.55632-0.140438 3.35251 0.45034 0 0 0.571915 0.417725 0.571915 1.11458 0 0.527393-0.0607452 1.60612-2.2601 1.72 -0.102737-0.0008774-1.82353-0.012886-2.16087-1.23284 -0.0016632-0.0077133-0.179794-1.04015 0.826172-1.18313 0 0-1.32269-0.310776-2.44246 0 -1.51529 0.42202-1.96564 1.81923-1.11299 2.81748 -0.0119324-0.0120125 1.23625 1.46821 4.60419 1.4442 3.39362 0.0907364 6.79233-0.925404 6.18962-4.33102 -0.0153351 0-0.407471-2.42965-4.08188-2.41597h-1.81494c0 0-0.773117 0.0574188-0.929779-0.308144 -0.0016632-0.0034218-0.344086-0.553082 0.729462-0.590698h0.0007935l0.196106-0.0222588c0 0 3.17017-0.38871 4.1521-1.77558 0.0136719-0.0154305 1.50075-1.65916-0.0290985-3.6368 -0.0017548 0-0.135269-0.181467-0.237137-0.267126h2.72499c-0.003418 1.2431-0.0111389 4.88675 0.0016632 4.91243 -0.0068359 3.44324 3.53748 3.31735 3.53748 3.31735 1.52214-0.0282249 2.53065-0.99387 2.71562-1.18313l-0.0008698 1.17121 4.52107 0.000782v-0.11808c-0.969132-0.042778-0.888657-1.59578-0.887787-1.63093V32.3461l0 0 0.000885-2.95188 -4.474 0.176392v0.126677c0.925385 0.0624962 0.84491 1.46226 0.84491 1.49987v3.10424l-0.0007935 1.16516c-0.0017548 0-0.0017548-0.0025406-0.0042877-0.0042076 -0.0505066 1.91251-1.38345 1.68563-1.37837 1.70877 -1.25677 0.0128021-1.22504-1.37661-1.22504-1.37661V29.3806ZM200.62 34.834c-0.09758 0.0222664-1.40054-0.0959053-1.25844-1.91943 0.0154266 0.0170937-0.0359497-1.62663 1.26195-1.62663 0 0 1.17796-0.0496197 1.20619 1.59841C201.83 32.9146 201.989 34.834 200.62 34.834Z"/>
    </g>

    <g id="site-preference" transform="translate(312, 54)">
        <path class="home0" d="M13,8a1,1,0,0,1-.71-.29L7,2.41,1.71,7.71A1,1,0,0,1,.29,6.29l6-6a1,1,0,0,1,1.42,0l6,6a1,1,0,0,1,0,1.42A1,1,0,0,1,13,8Z"></path>
	    <path class="home0" d="M12,10a.47.47,0,0,0-.15-.35l-4.5-4.5a.48.48,0,0,0-.7,0l-4.5,4.5A.47.47,0,0,0,2,10v3.5a.5.5,0,0,0,.5.5H5.75A.25.25,0,0,0,6,13.75V11.5a1,1,0,0,1,2,0v2.25a.25.25,0,0,0,.25.25H11.5a.5.5,0,0,0,.5-.5Z"></path>
    </g>
    <g id="ad-choices">
        <rect class="st5" x="335" y="25" width="18" height="72"/>
        <path class="st31" d="M336 41c-0.200012 0-0.399994 0-0.5-0.0999985 -0.299988-0.200001-0.5-0.5-0.5-0.800003V25.9c0-0.299999 0.200012-0.6 0.5-0.799999 0.299988-0.1 0.700012-0.200001 1 0L350.5 32c0.299988 0.0999985 0.5 0.400001 0.5 0.799999 0 0.299999-0.200012 0.600002-0.5 0.799999L341 39c-0.299988 0.200001-0.700012 0.200001-1 0 -0.299988-0.0999985-0.5-0.5-0.5-0.799999v-4.3c0-0.5 0.399994-0.900002 1-0.900002 0.5 0 1 0.400001 1 0.900002V36.5l6.5-3.6L337.1 27.5v11.1l0.699982-0.299999c0.5-0.200001 1.10001 0 1.30002 0.400001 0.199982 0.399998 0 1-0.5 1.2L336.5 40.8C336.3 41 336.2 41 336 41Z"/>
        <path class="st31" d="M340.4 32.3c0.600006 0 1.10001-0.4 1.10001-1 0-0.599998-0.5-1-1.10001-1s-1.10001 0.400001-1.10001 1C339.3 31.9 339.8 32.3 340.4 32.3"/>
        <path class="st32" d="M336 59c-0.200012 0-0.399994 0-0.5-0.0999985 -0.299988-0.200001-0.5-0.5-0.5-0.800003V43.9c0-0.300003 0.200012-0.600002 0.5-0.800003 0.299988-0.0999985 0.700012-0.199997 1 0L350.5 50c0.299988 0.0999985 0.5 0.400001 0.5 0.799999 0 0.299999-0.200012 0.600002-0.5 0.799999L341 57c-0.299988 0.200001-0.700012 0.200001-1 0 -0.299988-0.0999985-0.5-0.5-0.5-0.799999v-4.3c0-0.5 0.399994-0.900002 1-0.900002 0.5 0 1 0.400001 1 0.900002V54.5l6.5-3.6L337.1 45.5v11.1l0.699982-0.299999c0.5-0.200001 1.10001 0 1.30002 0.400001 0.199982 0.399998 0 1-0.5 1.2L336.5 58.8C336.3 59 336.2 59 336 59Z"/>
        <path class="st32" d="M340.4 50.3c0.600006 0 1.10001-0.399998 1.10001-1 0-0.599998-0.5-1-1.10001-1s-1.10001 0.400001-1.10001 1C339.3 49.9 339.8 50.3 340.4 50.3"/>
        <path class="st1" d="M336 77c-0.200012 0-0.399994 0-0.5-0.0999985 -0.299988-0.200005-0.5-0.5-0.5-0.800003V61.9c0-0.300003 0.200012-0.600002 0.5-0.800003 0.299988-0.0999985 0.700012-0.199997 1 0L350.5 68c0.299988 0.0999985 0.5 0.400001 0.5 0.800003 0 0.299995-0.200012 0.599998-0.5 0.799995L341 75c-0.299988 0.199997-0.700012 0.199997-1 0 -0.299988-0.0999985-0.5-0.5-0.5-0.800003v-4.3c0-0.5 0.399994-0.900002 1-0.900002 0.5 0 1 0.400001 1 0.900002V72.5l6.5-3.6L337.1 63.5v11.1l0.699982-0.299995c0.5-0.200005 1.10001 0 1.30002 0.399994 0.199982 0.400001 0 1-0.5 1.2L336.5 76.8C336.3 77 336.2 77 336 77Z"/>
        <path class="st1" d="M340.4 68.3c0.600006 0 1.10001-0.400001 1.10001-1 0-0.600006-0.5-1-1.10001-1s-1.10001 0.399994-1.10001 1C339.3 67.9 339.8 68.3 340.4 68.3"/>
        <path class="st33" d="M336 95c-0.200012 0-0.399994 0-0.5-0.0999985 -0.299988-0.200005-0.5-0.5-0.5-0.800003V79.9c0-0.300003 0.200012-0.599998 0.5-0.800003 0.299988-0.0999985 0.700012-0.199997 1 0L350.5 86c0.299988 0.0999985 0.5 0.400001 0.5 0.800003 0 0.299995-0.200012 0.599998-0.5 0.799995L341 93c-0.299988 0.199997-0.700012 0.199997-1 0 -0.299988-0.0999985-0.5-0.5-0.5-0.800003v-4.3c0-0.5 0.399994-0.900002 1-0.900002 0.5 0 1 0.400001 1 0.900002V90.5l6.5-3.6L337.1 81.5v11.1l0.699982-0.299995c0.5-0.200005 1.10001 0 1.30002 0.399994 0.199982 0.400001 0 1-0.5 1.2L336.5 94.8C336.3 95 336.2 95 336 95Z"/>
        <path class="st33" d="M340.4 86.3c0.600006 0 1.10001-0.400001 1.10001-1 0-0.600006-0.5-1-1.10001-1s-1.10001 0.399994-1.10001 1C339.3 85.9 339.8 86.3 340.4 86.3"/>
    </g>
    <g id="back">
        <rect class="st5" x="150" y="71" width="47" height="22"/>
        <polygon class="st1" points="161.7 71 150.7 82 161.7 93 197 93 197 71"/>
        <path d="M163.014 78.4209h2.86133c0.566406 0 0.988769 0.0234375 1.26709 0.0712891 0.27832 0.046875 0.527344 0.144531 0.74707 0.294922s0.402832 0.349609 0.549316 0.597656c0.146484 0.25 0.219727 0.529297 0.219727 0.837891 0 0.335938-0.090332 0.642578-0.270996 0.922852s-0.425781 0.489258-0.734863 0.629883c0.436035 0.126953 0.771484 0.34375 1.00586 0.649414s0.351563 0.665039 0.351563 1.0791c0 0.326172-0.0756836 0.642578-0.227051 0.949219 -0.151367 0.308594-0.35791 0.553711-0.620117 0.738281 -0.262207 0.183594-0.584961 0.296875-0.969238 0.338867 -0.240723 0.0263672-0.821777 0.0419922-1.74316 0.0488281h-2.43652V78.4209ZM164.459 79.6123v1.65527h0.947266c0.562988 0 0.913086-0.0078125 1.0498-0.0244141 0.247559-0.0292969 0.441895-0.114258 0.583496-0.256836 0.141602-0.140625 0.212402-0.328125 0.212402-0.558594 0-0.220703-0.0610352-0.401367-0.183105-0.539063 -0.12207-0.138672-0.303711-0.222656-0.544434-0.251953 -0.143066-0.015625-0.555176-0.0244141-1.23535-0.0244141H164.459ZM164.459 82.459v1.91406h1.33789c0.520996 0 0.851074-0.0146484 0.991211-0.0439453 0.214844-0.0390625 0.389648-0.133789 0.524902-0.286133 0.135254-0.150391 0.202637-0.353516 0.202637-0.607422 0-0.214844-0.0522461-0.396484-0.15625-0.546875s-0.254883-0.258789-0.45166-0.327148 -0.624023-0.102539-1.28174-0.102539H164.459Z"/>
        <path d="M176.686 85.5791h-1.57227l-0.625-1.62598h-2.86084l-0.59082 1.62598h-1.5332l2.78809-7.1582h1.52783L176.686 85.5791ZM174.024 82.7471l-0.986328-2.65625 -0.966309 2.65625H174.024Z"/>
        <path d="M182.032 82.9473l1.40137 0.444336c-0.214844 0.78125-0.572266 1.36133-1.07227 1.74121 -0.499023 0.378906-1.13281 0.568359-1.90137 0.568359 -0.950195 0-1.73145-0.324219-2.34375-0.974609 -0.611328-0.648438-0.917969-1.53711-0.917969-2.66309 0-1.19141 0.307617-2.11621 0.922852-2.77637 0.615234-0.658203 1.4248-0.988281 2.42676-0.988281 0.875977 0 1.58691 0.258789 2.13379 0.776367 0.325195 0.305664 0.569336 0.745117 0.732422 1.31836l-1.43066 0.341797c-0.0849609-0.371094-0.260742-0.664063-0.530273-0.878906 -0.267578-0.214844-0.594727-0.322266-0.978516-0.322266 -0.530273 0-0.960938 0.19043-1.29102 0.571289 -0.331055 0.380859-0.496094 0.998047-0.496094 1.85059 0 0.905273 0.163086 1.5498 0.488281 1.93359 0.326172 0.383789 0.749023 0.576172 1.26953 0.576172 0.383789 0 0.714844-0.12207 0.991211-0.366211S181.912 83.4707 182.032 82.9473Z"/>
        <path d="M184.693 85.5791v-7.1582h1.44531v3.17871l2.91992-3.17871h1.94336l-2.69531 2.78809 2.8418 4.37012h-1.87012l-1.96777-3.35938 -1.17188 1.19629v2.16309H184.693Z"/>
    </g>
    <g id="paper" transform="translate(200, 73)">
        <defs>
            <linearGradient x1="11.441646%" y1="-12.3826756%" x2="100%" y2="89.6267103%" id="linearGradient-1">
                <stop stop-color="#FFFFFF" offset="0%"></stop>
                <stop stop-color="#E6E8EB" offset="100%"></stop>
            </linearGradient>
            <linearGradient x1="0%" y1="43.5287775%" x2="100%" y2="56.4712225%" id="linearGradient-2">
                <stop stop-color="#EDEEF1" offset="0%"></stop>
                <stop stop-color="#D8DCDF" offset="100%"></stop>
            </linearGradient>
        </defs>
        <g id="Page-1" stroke="none" stroke-width="1" fill="none" fill-rule="evenodd">
            <g id="No-nav" transform="translate(-107.000000, -245.000000)">
                <g id="Group-8" transform="translate(107.000000, 245.000000)">
                    <polyline id="Fill-300" fill="url(#linearGradient-1)" points="0 8.63414634 0 30 18.9176471 30 18.9176471 24.7317073 24 24.7317073 24 8.63414634 0 8.63414634"></polyline>
                    <polygon id="Fill-301" fill="url(#linearGradient-2)" points="0 8.63414634 24 8.63414634 24 -4.61852778e-14 0 -4.61852778e-14"></polygon>
                    <polyline id="Fill-302" fill="#C2C6C9" points="18.9176471 30 18.9176471 24.7317073 24 24.7317073 18.9176471 30"></polyline>
                    <path d="M12.9882353,1.24390244 L12.9882353,1.31926829 C13.5529412,1.54968293 13.3524706,2.13146341 13.3524706,2.13146341 L12.3105882,5.57260976 L10.9023529,1.24390244 L8.89411765,1.24390244 L8.89411765,1.34114634 C9.24705882,1.42097561 9.41505882,2.03114634 9.41505882,2.03114634 L10.7188235,5.7702439 C11.0767059,6.82317073 11.7515294,7.03097561 11.7515294,7.03097561 L12.5823529,7.35139024 L14.5764706,1.24390244 L12.9882353,1.24390244" id="Fill-303" fill="#832125"></path>
                </g>
            </g>
        </g>
    </g>
    <g id="co-brand">
        <rect class="st35" x="2" y="71" width="146" height="42"/>
        <path class="st36" d="M19 87.6c-0.1-0.400001-0.299999-2-2.5-2 -2.8 0-3.3 2.8-3.3 4.8 0 2.2 0.6 4.5 3.3 4.5 0.700001 0 1.4-0.200005 1.9-0.700005C18.8 93.8 18.9 93.3 19 93h1.8C20.6 95.3 18.5 96.2 16.5 96.2c-4.1 0-4.9-3.6-4.9-5.8 0-2.4 0.900001-6.1 5.1-6.1 1.6 0 3.9 0.699997 4.1 3.3H19Z"/>
        <path class="st36" d="M23.7 85.7c1.2-1.3 2.8-1.6 3.9-1.6 3.2 0 5.2 2 5.2 6 0 3.1-1.2 6.2-5.3 6.2 -3.9 0-5.2-2.8-5.2-6C22.2 89 22.4 87.1 23.7 85.7ZM24.9 93.9C25.6 94.7 26.5 95 27.5 95c0.9 0 1.9-0.300003 2.6-1.1 0.9-1.2 1-3 1-3.8 0-2.6-0.9-4.6-3.5-4.6 -2.9 0-3.7 2.4-3.7 4.7C23.9 91.5 24.1 92.9 24.9 93.9Z"/>
        <path class="st36" d="M35.2 84.5h4.1c1.4 0 2.2 0.0999985 2.9 0.800003C42.7 85.8 43 86.5 43 87.4 43 89.3 41.6 89.8 41 90c0.700001 0.199997 2.3 0.699997 2.3 2.9 0 1.6-1 2.4-1.4 2.6C41.2 96 40.4 96 39.4 96h-4.2V84.5ZM36.8 89.4H39c0.5 0 2.4 0 2.4-1.8 0-1.7-1.5-1.7-2.3-1.7h-2.3L36.8 89.4ZM36.8 94.7H39.5c1.3 0 2.3-0.699997 2.3-2 0-1.2-0.799999-2-2.2-2h-2.8V94.7Z"/>
        <path class="st36" d="M45.8 84.5h4.1c0.599998 0 1.8 0 2.7 0.5s1.3 1.4 1.3 2.4c0 0.799995-0.299999 1.5-0.799999 2s-1 0.699997-1.4 0.799995C52.8 90.5 53.3 91 53.5 92.4S53.8 94.8 54.2 96h-1.7c-0.299999-0.800003-0.400001-2.2-0.5-3.1 -0.200001-1.7-0.599998-2.2-2.5-2.2h-2V96h-1.6V84.5H45.8ZM47.3 89.5h2.5c0.200001 0 1.1 0 1.5-0.300003 0.200001-0.0999985 0.799999-0.5 0.799999-1.5 0-1.89999-1.7-1.89999-2.3-1.89999h-2.5V89.5Z"/>
        <path class="st36" d="M60.1 84.5h1.7L66.4 96h-1.7L63.5 93h-5.4l-1.2 3h-1.6L60.1 84.5ZM58.6 91.7H63L60.9 86 58.6 91.7Z"/>
        <path class="st36" d="M68.1 84.5h2.2L76 94v-9.6h1.5V96h-2l-5.9-9.8V96h-1.5V84.5Z"/>
        <path class="st36" d="M80.5 84.5h3.3c1.6 0 3.4 0 4.7 1.5 1 1.2 1.4 2.8 1.4 4.4 0 2.5-1 4-1.9 4.7C86.8 96 85.4 96 83.7 96H80.5V84.5ZM82.1 94.7h1.6c1.1 0 2.3-0.0999985 3-0.599998 1.5-1.1 1.5-3 1.5-3.7 0-0.400001 0-2.4-1.1-3.6 -0.699997-0.800003-1.7-1-3.1-1h-1.9V94.7Z"/>
        <path class="st36" d="M96.5 84.5h1.6v10.1H103.5V96h-7V84.5Z"/>
        <path class="st36" d="M105.6 85.7c1.2-1.3 2.8-1.6 3.9-1.6 3.2 0 5.2 2 5.2 6 0 3.1-1.2 6.2-5.3 6.2 -3.9 0-5.2-2.8-5.2-6C104.1 89 104.3 87.1 105.6 85.7ZM106.8 93.9C107.5 94.7 108.4 95 109.4 95c0.900002 0 1.9-0.300003 2.6-1.1 0.900002-1.2 1-3 1-3.8C113 87.5 112.1 85.5 109.5 85.5c-2.9 0-3.7 2.4-3.7 4.7C105.8 91.5 106 92.9 106.8 93.9Z"/>
        <path class="st36" d="M124.8 87.4c-0.199997-1.1-1-1.8-2.6-1.8 -1.1 0-2 0.300003-2.6 1 -1 1.1-1.2 2.6-1.2 3.7 0 1 0.199997 2.6 1.1 3.6C120.3 94.8 121.4 95 122.6 95c1.3 0 2.1-0.300003 2.5-0.400001v-3.4h-2.6v-1.3h4.2v5.7c-0.699997 0.199997-2.1 0.699997-4.1 0.699997 -2.1 0-3.4-0.599998-4.2-1.4 -1.1-1.2-1.6-2.8-1.6-4.4 0-1.2 0.300003-3.89999 2.5-5.3 1.1-0.800003 2.6-0.800003 3.2-0.800003 0.900002 0 2.3 0.0999985 3.4 1.2 0.699997 0.699997 0.699997 1.39999 0.800003 1.8H124.8Z"/>
        <path class="st36" d="M130.5 85.7c1.2-1.3 2.8-1.6 3.89999-1.6 3.2 0 5.2 2 5.2 6 0 3.1-1.2 6.2-5.3 6.2 -3.89999 0-5.2-2.8-5.2-6C129 89 129.2 87.1 130.5 85.7ZM131.7 93.9C132.4 94.7 133.3 95 134.3 95c0.899994 0 1.89999-0.300003 2.60001-1.1 0.899994-1.2 1-3 1-3.8 0-2.6-0.899994-4.6-3.5-4.6 -2.90001 0-3.7 2.4-3.7 4.7C130.7 91.5 130.9 92.9 131.7 93.9Z"/>
    </g>

    <g id="link-offsite-default">
        <rect class="st5" x="150" y="97" width="11" height="11"/>
        <polyline class="link-secondary-static" points="155,107.5 160.5,107.5 160.5,97.5 150.5,97.5 150.5,103"/>
        <polyline class="link-secondary-static" points="157.5,105 157.5,100.5 153,100.5"/>
        <line class="link-secondary-static" x1="150.5" y1="107.5" x2="157.5" y2="100.5"/>
    </g>
    <g id="link-offsite-active">
        <rect class="st5" x="165" y="97" width="11" height="11"/>
        <polyline class="link-secondary-active" points="170,107.5 175.5,107.5 175.5,97.5 165.5,97.5 165.5,103"/>
        <polyline class="link-secondary-active" points="172.5,105 172.5,100.5 168,100.5"/>
        <line class="link-secondary-active" x1="165.5" y1="107.5" x2="172.5" y2="100.5"/>
    </g>
    <g id="link-offsite-hover">
        <rect class="st5" x="180" y="97" width="11" height="11"/>
        <polyline class="link-secondary-hover" points="185,107.5 190.5,107.5 190.5,97.5 180.5,97.5 180.5,103"/>
        <polyline class="link-secondary-hover" points="187.5,105 187.5,100.5 183,100.5"/>
        <line class="link-secondary-hover" x1="180.5" y1="107.5" x2="187.5" y2="100.5"/>
    </g>

    <g id="white_arrow_up" transform="translate(259,105)">
        <svg width="12px" height="8px" viewBox="0 0 12 8" version="1.1" xmlns="http://www.w3.org/2000/svg" xmlns:xlink="http://www.w3.org/1999/xlink">
            <!-- Generator: sketchtool 64 (101010) - https://sketch.com -->
            <title>AE4AF575-8181-447E-B1EA-99AE042A71FD@1.00x</title>
            <desc>Created with sketchtool.</desc>
            <g id="Dev-Hand-Off" stroke="none" stroke-width="1" fill="none" fill-rule="evenodd">
                <g id="mobile-menu---sub-nav-open-default" transform="translate(-241.000000, -284.000000)" fill="#fff" fill-rule="nonzero">
                    <g id="icon-xs-/-arrow-up" transform="translate(241.000000, 282.000000)">
                        <path d="M5.76,9.76540601 C5.44238291,9.76581461 5.13998339,9.62370957 4.93008,9.37540512 L0.2208,3.79940512 C-0.088766053,3.41510964 -0.0471979191,2.84366852 0.314423751,2.51235043 C0.676045422,2.18103234 1.22544751,2.21102604 1.55184,2.57990512 L5.66976,7.45590512 C5.6925452,7.4829825 5.72543314,7.49850974 5.76,7.49850974 C5.79456686,7.49850974 5.8274548,7.4829825 5.85024,7.45590512 L9.96816,2.57990512 C10.1749172,2.32323666 10.4989147,2.20335509 10.814779,2.26664962 C11.1306432,2.32994416 11.3888185,2.5664846 11.4894017,2.88473952 C11.5899848,3.20299445 11.5171954,3.55303318 11.2992,3.79940512 L6.59136,9.37340512 C6.38109721,9.62231064 6.07828779,9.76509029 5.76,9.76540601 Z" id="Color" transform="translate(5.773624, 6.007703) scale(1, -1) translate(-5.773624, -6.007703) "></path>
                    </g>
                </g>
            </g>
        </svg>
    </g>
    <g id="white_arrow_down" transform="translate(280,105)">
        <svg width="12px" height="8px" viewBox="0 0 12 8" version="1.1" xmlns="http://www.w3.org/2000/svg" xmlns:xlink="http://www.w3.org/1999/xlink">
            <!-- Generator: sketchtool 64 (101010) - https://sketch.com -->
            <title>7BDD36A2-9071-4637-8EC5-5DB6A2C10E6A@1.00x</title>
            <desc>Created with sketchtool.</desc>
            <g id="Dev-Hand-Off" stroke="none" stroke-width="1" fill="none" fill-rule="evenodd">
                <g id="mobile-menu---hover" transform="translate(-241.000000, -284.000000)" fill="#fff" fill-rule="nonzero">
                    <g id="icon-xs-/-arrow-down" transform="translate(241.000000, 282.000000)">
                        <path d="M5.76,9.75000088 C5.44238291,9.75040949 5.13998339,9.60830445 4.93008,9.36 L0.2208,3.784 C-0.088766053,3.39970452 -0.0471979191,2.8282634 0.314423751,2.49694531 C0.676045422,2.16562722 1.22544751,2.19562092 1.55184,2.5645 L5.66976,7.4405 C5.6925452,7.46757737 5.72543314,7.48310461 5.76,7.48310461 C5.79456686,7.48310461 5.8274548,7.46757737 5.85024,7.4405 L9.96816,2.5645 C10.1749172,2.30783154 10.4989147,2.18794996 10.814779,2.2512445 C11.1306432,2.31453903 11.3888185,2.55107947 11.4894017,2.8693344 C11.5899848,3.18758933 11.5171954,3.53762805 11.2992,3.784 L6.59136,9.358 C6.38109721,9.60690551 6.07828779,9.74968517 5.76,9.75000088 Z" id="Color"></path>
                    </g>
                </g>
            </g>
        </svg>
    </g>
    <g class="c11n-search-small"  height="14" width="14" viewBox="0 0 14 14">
        <g transform="translate(140, 130)">
            <path d="M13.7265333,13.7265333 C14.0908898,13.3620668 14.0908898,12.7712665 13.7265333,12.4068 L11.2336,9.91386667 C11.1540898,9.83623848 11.1400548,9.71343261 11.2,9.61986667 C12.7859562,7.21942761 12.2968024,4.00803252 10.0680889,2.18863689 C7.83937529,0.369241252 4.59506283,0.532845819 2.56068766,2.56722099 C0.526312486,4.60159616 0.362707918,7.84590863 2.18210355,10.0746222 C4.00149919,12.3033358 7.21289428,12.7924895 9.61333333,11.2065333 C9.70604473,11.1456273 9.82876411,11.158094 9.90733333,11.2364 L12.4002667,13.7293333 C12.575925,13.9059433 12.8148922,14.0050094 13.0639838,14.0044856 C13.3130755,14.0039576 13.5516222,13.9038834 13.7265333,13.7265333 Z M2.8,6.53333333 C2.8,4.47147027 4.47147027,2.8 6.53333333,2.8 C8.5951964,2.8 10.2666667,4.47147027 10.2666667,6.53333333 C10.2666667,8.5951964 8.5951964,10.2666667 6.53333333,10.2666667 C5.54319177,10.2666667 4.59360383,9.87333446 3.89346802,9.17319865 C3.1933322,8.47306284 2.8,7.5234749 2.8,6.53333333 Z"></path>
        </g>
    </g>
    <g class="c11n-link-right-small" height="14" width="14" viewBox="0 0 14 14">
        <g transform="translate(123, 115)">
            <g transform="matrix(0.5833333333333334,0,0,0.5833333333333334,0,0)">
                <path fill="#145bff" d="M23.987,12a2.411,2.411,0,0,0-.814-1.8L11.994.361a1.44,1.44,0,0,0-1.9,2.162l8.637,7.6a.25.25,0,0,1-.165.437H1.452a1.44,1.44,0,0,0,0,2.88H18.563a.251.251,0,0,1,.165.438l-8.637,7.6a1.44,1.44,0,1,0,1.9,2.161L23.172,13.8A2.409,2.409,0,0,0,23.987,12Z"></path>
            </g>
        </g>
    </g>
    <g class="c11n-caret-up-small" height="14" width="14" viewBox="0 0 14 14">
        <g transform="translate(123, 143)">
            <g transform="matrix(1.4,0,0,1.4,0,0)">
                <path d="M9.794,6.607,5.884,2.49A1.255,1.255,0,0,0,4.1,2.5l-3.9,4.1A.75.75,0,1,0,1.294,7.641L4.819,3.928a.249.249,0,0,1,.362,0L8.706,7.641A.75.75,0,1,0,9.794,6.607Z"></path></g></g>
    </g>
    <g class="c11n-caret-down-small" height="14" width="14" viewBox="0 0 14 14">
        <g transform="translate(137, 145), rotate(180)">
            <g transform="matrix(1.4,0,0,1.4,0,0)">
                <path d="M9.794,6.607,5.884,2.49A1.255,1.255,0,0,0,4.1,2.5l-3.9,4.1A.75.75,0,1,0,1.294,7.641L4.819,3.928a.249.249,0,0,1,.362,0L8.706,7.641A.75.75,0,1,0,9.794,6.607Z"></path>
            </g>
        </g>
    </g>
    <g id="gray_arrow_small_down" transform="translate(244, 127) rotate(180)">
        <svg height="14" width="14" viewBox="0 0 14 14" version="1.1" xmlns="http://www.w3.org/2000/svg" xmlns:xlink="http://www.w3.org/1999/xlink">
            <g stroke="none" stroke-width="1" fill="none" fill-rule="evenodd">
                <g fill="#717777" fill-rule="nonzero">
                    <g transform="matrix(1.4,0,0,1.4,0,0)">
                        <path d="M9.794,6.607,5.884,2.49A1.255,1.255,0,0,0,4.1,2.5l-3.9,4.1A.75.75,0,1,0,1.294,7.641L4.819,3.928a.249.249,0,0,1,.362,0L8.706,7.641A.75.75,0,1,0,9.794,6.607Z"></path>
                    </g>
                </g>
            </g>
        </svg>
    </g>

    <g id="gray_arrow_small_up" transform="translate(230, 127)">
        <svg height="14" width="14" viewBox="0 0 14 14" version="1.1" xmlns="http://www.w3.org/2000/svg" xmlns:xlink="http://www.w3.org/1999/xlink">
            <g stroke="none" stroke-width="1" fill="none" fill-rule="evenodd">
                <g fill="#717777" fill-rule="nonzero">
                    <g transform="matrix(1.4,0,0,1.4,0,0)">
                        <path d="M9.794,6.607,5.884,2.49A1.255,1.255,0,0,0,4.1,2.5l-3.9,4.1A.75.75,0,1,0,1.294,7.641L4.819,3.928a.249.249,0,0,1,.362,0L8.706,7.641A.75.75,0,1,0,9.794,6.607Z"></path>
                    </g>
                </g>
            </g>
        </svg>
    </g>
    <g class="c11n-remove-small" height="14" width="14" viewBox="0 0 14 14">
        <g transform="translate(140, 115)">
            <path d="M8.591,7.177a.25.25,0,0,1,0-.354l4.616-4.616A1,1,0,1,0,11.793.793L7.177,5.409a.25.25,0,0,1-.354,0L2.207.793A1,1,0,0,0,.793,2.207L5.409,6.823a.25.25,0,0,1,0,.354L.793,11.793a1,1,0,0,0,1.414,1.414L6.823,8.591a.25.25,0,0,1,.354,0l4.616,4.616a1,1,0,0,0,1.414-1.414Z"></path>
        </g>
    </g>

    <g class="c11n-search-medium" height="24" width="24">
        <g transform="translate(160, 115)">
        <path d="M0.500 10.500 A10.000 10.000 0 1 0 20.500 10.500 A10.000 10.000 0 1 0 0.500 10.500 Z"></path>
        <path d="M23.5 23.5L17.571 17.571"></path>
        </g>
    </g>

    <g class="c11n-remove-medium" height="24" width="24" viewBox="0 0 24 24">
        <g transform="translate(195, 110)">
            <line class="st0" x1="7" y1="7" x2="17" y2="17"></line>
            <line class="st0" x1="17" y1="7" x2="7" y2="17"></line>
        </g>
    </g>

</svg>